<?xml version="1.0" encoding="UTF-8"?>
<!DOCTYPE svg PUBLIC "-//W3C//DTD SVG 1.1//EN" "http://www.w3.org/Graphics/SVG/1.1/DTD/svg11.dtd">
<!-- Creator: CorelDRAW -->
<svg xmlns="http://www.w3.org/2000/svg" xml:space="preserve" width="210mm" height="297mm" version="1.1" style="shape-rendering:geometricPrecision; text-rendering:geometricPrecision; image-rendering:optimizeQuality; fill-rule:evenodd; clip-rule:evenodd"
viewBox="0 0 21000 29700"
 xmlns:xlink="http://www.w3.org/1999/xlink"
 xmlns:xodm="http://www.corel.com/coreldraw/odm/2003">
 <defs>
  <style type="text/css">
   <![CDATA[
    .fil0 {fill:black}
   ]]>
  </style>
 </defs>
 <g id="Слой_x0020_1">
  <metadata id="CorelCorpID_0Corel-Layer"/>
  <path class="fil0" d="M11006.2 11783.07c-1068.32,263.53 -672.62,1109.1 -1852.19,2063.86 -244.39,197.82 -436.04,366.41 -590.98,723.68 -319.37,736.39 77.79,1531.39 629.8,1750.48 862.11,342.1 1459.79,-313.58 2200.29,-188.88 657.49,110.74 1750.95,738.72 2371.28,-324.49 287.11,-492.06 201.47,-1085.88 -92.33,-1515.84 -141.74,-207.48 -297.25,-333.13 -478.07,-478.15 -349.94,-280.66 -527.57,-496.05 -750.86,-902.81 -75.11,-136.83 -129.04,-287.56 -204.92,-432.15 -72.05,-137.22 -186.97,-304.43 -271.18,-385.75 -186.15,-179.69 -562.7,-408.19 -960.84,-309.95z"/>
  <path class="fil0" d="M12563.07 8407.49c-573.89,130.7 -921.33,878.46 -999.78,1568.16 -44.78,393.58 29.95,806.67 224.73,1060.96 160.12,209.04 456.31,457.02 874.7,400.22 1535.24,-208.48 1150.96,-3314.19 -99.65,-3029.34z"/>
  <path class="fil0" d="M9530.74 8415.25c-831.57,190.59 -1106.56,1904.83 -424.27,2693.36 169.35,195.72 535.59,398.99 926.89,312.57 752.34,-166.19 895.75,-1023.1 751.87,-1710.4 -124.92,-596.77 -558.67,-1455.01 -1254.49,-1295.53z"/>
  <path class="fil0" d="M14546.13 10884.09c-776.01,222.31 -1443.43,1591.79 -1003.12,2321.45 137.39,227.67 402.69,441.06 800.09,410.4 1003.54,-77.39 1335.31,-1634.87 995.92,-2344.93 -119.7,-250.4 -395.3,-500.81 -792.89,-386.92z"/>
  <path class="fil0" d="M7544.92 10869.92c-1152.06,240.31 -612.17,3114.76 827.12,2711.88 639.73,-179.09 756.55,-990.93 463.32,-1644.87 -183.27,-408.69 -432.17,-787.52 -809.09,-983.78 -137.41,-71.53 -303.93,-120.24 -481.35,-83.23z"/>
 </g>
</svg>
